<svg width="64" height="64" viewBox="0 0 64 64" fill="none" xmlns="http://www.w3.org/2000/svg"><path fill-rule="evenodd" clip-rule="evenodd" d="M18.667 8.666a2 2 0 0 1 2 2v4.447c7.54-.671 15.126-.671 22.666 0v-4.447a2 2 0 0 1 4 0v4.844a9.001 9.001 0 0 1 7.66 7.73l.23 1.74a77.317 77.317 0 0 1-.248 22.049 8.025 8.025 0 0 1-7.143 6.752l-3.181.314c-8.414.83-16.888.83-25.302 0l-3.181-.313a8.025 8.025 0 0 1-7.143-6.753 77.319 77.319 0 0 1-.249-22.048l.231-1.742a9.001 9.001 0 0 1 7.66-7.729v-4.844a2 2 0 0 1 2-2Zm1.187 10.541a123.764 123.764 0 0 1 24.292 0l2.415.238a5.001 5.001 0 0 1 4.466 4.32l.231 1.741c.08.608.154 1.218.219 1.827H12.523c.065-.61.138-1.218.219-1.827l.23-1.741a5.001 5.001 0 0 1 4.467-4.32l2.415-.238Zm-7.65 12.126a73.318 73.318 0 0 0 .774 15.08 4.025 4.025 0 0 0 3.582 3.388l3.182.314c8.152.803 16.364.803 24.516 0l3.181-.314a4.025 4.025 0 0 0 3.583-3.387 73.318 73.318 0 0 0 .773-15.08h-39.59Z" fill="#1F1F1E"/></svg>