<svg width="64" height="64" viewBox="0 0 64 64" fill="none" xmlns="http://www.w3.org/2000/svg"><path fill-rule="evenodd" clip-rule="evenodd" d="M26.504 6.7a55.333 55.333 0 0 1 12.515 0l4.255.483a2 2 0 0 1 1.652 2.675l-5.874 16.044h6.281a2 2 0 0 1 1.873 2.703l-.508 1.353a95.33 95.33 0 0 1-14.76 25.986l-1.042 1.304A2 2 0 0 1 27.333 56V36.927h-4.857a2 2 0 0 1-1.992-1.824l-.327-3.684a105.996 105.996 0 0 1 0-18.74l.327-3.685a2 2 0 0 1 1.766-1.81l4.254-.485Zm12.063 3.974a51.332 51.332 0 0 0-11.61 0l-2.633.3-.183 2.058a102 102 0 0 0 0 18.033l.165 1.862h5.027a2 2 0 0 1 2 2v15.212a91.33 91.33 0 0 0 11.1-20.237H36.19a2 2 0 0 1-1.878-2.687l5.983-16.345-1.728-.196Z" fill="#1F1F1E"/></svg>