<svg width="180" height="57" viewBox="0 0 180 57" fill="none" xmlns="http://www.w3.org/2000/svg"><g clip-path="url(#a)" fill="#1F1F1E"><path d="M88.89 24.626v8.319a.131.131 0 0 1-.131.13h-9.744a.131.131 0 0 1-.131-.13v-8.32a.126.126 0 0 0-.128-.126h-3.07a.13.13 0 0 0-.092.036.129.129 0 0 0-.039.09v15.118a.126.126 0 0 0 .131.127h3.064a.126.126 0 0 0 .128-.127v-3.248a.124.124 0 0 1 .038-.091.128.128 0 0 1 .093-.036h9.744a.128.128 0 0 1 .13.127v3.248a.128.128 0 0 0 .128.127h3.064a.131.131 0 0 0 .093-.036.126.126 0 0 0 .038-.091V24.626a.127.127 0 0 0-.13-.127h-3.058a.127.127 0 0 0-.128.127ZM57.818 27.545H69.9a.437.437 0 0 0 .435-.432v-2.092a.425.425 0 0 0-.269-.397.437.437 0 0 0-.166-.032H57.416a3.758 3.758 0 0 0-2.639 1.083 3.694 3.694 0 0 0-1.092 2.615v7.885a3.669 3.669 0 0 0 1.094 2.611 3.73 3.73 0 0 0 2.637 1.08H69.9a.437.437 0 0 0 .308-.126.43.43 0 0 0 .127-.305v-2.092a.426.426 0 0 0-.269-.397.435.435 0 0 0-.166-.032H57.81a1.04 1.04 0 0 1-.73-.301 1.022 1.022 0 0 1-.302-.725v-7.32a1.017 1.017 0 0 1 .642-.947 1.04 1.04 0 0 1 .397-.076ZM145.864 27.545h12.01a.258.258 0 0 0 .239-.156.253.253 0 0 0 .02-.098v-2.445a.258.258 0 0 0-.259-.257h-12.412a4.021 4.021 0 0 0-1.531.298 3.987 3.987 0 0 0-2.166 2.143c-.201.48-.304.996-.304 1.517v7.371c0 1.048.419 2.052 1.166 2.793a4.004 4.004 0 0 0 2.817 1.159h9.72c.664-.008 1.326-.05 1.985-.127a1.627 1.627 0 0 0 .996-1.492v-6.338a.259.259 0 0 0-.259-.257h-5.865a.265.265 0 0 0-.183.075.256.256 0 0 0-.075.181v2.443c0 .067.028.132.076.179a.261.261 0 0 0 .182.074h2.875a.26.26 0 0 1 .256.257v1.784a.26.26 0 0 1-.256.257h-9.032c-.342-.002-.669-.137-.911-.377a1.276 1.276 0 0 1-.377-.904v-6.8c0-.34.136-.665.377-.904.242-.24.569-.376.911-.376ZM123.321 39.89h-3.325V28.84a.406.406 0 0 1 .272-.383.412.412 0 0 1 .456.123l2.405 2.85c.123.145.191.329.192.519v7.942ZM132.935 24.67v9.564a.066.066 0 0 1-.043.058.064.064 0 0 1-.07-.019l-8.134-9.747h-4.357a.157.157 0 0 0-.139.09c-.012.027-.016.056-.012.085a.152.152 0 0 0 .035.079l12.677 15.065a.16.16 0 0 0 .119.055h3.097a.152.152 0 0 0 .152-.154V24.67a.151.151 0 0 0-.152-.15h-3.015a.151.151 0 0 0-.158.15ZM24.437 37.328v2.113a.408.408 0 0 1-.257.383.418.418 0 0 1-.16.03H10.128c-2.056 0-2.345-1.654-2.345-3.691v-2.261l2.631-3.366H21.03a.42.42 0 0 1 .418.414v2.463a.412.412 0 0 1-.257.387.424.424 0 0 1-.16.032h-9.72a.419.419 0 0 0-.418.414v1.642a.988.988 0 0 0 .268.688 1.02 1.02 0 0 0 .758.338H24.02a.412.412 0 0 1 .417.414ZM24.65 25.003v2.128a.415.415 0 0 1-.417.414H12.759l2.314-2.953h9.15a.422.422 0 0 1 .394.252c.021.05.033.104.033.159ZM48.89 39.87h-4.084a.208.208 0 0 1-.14-.058l-3.825-3.704a.302.302 0 0 1 0-.44l2.05-1.875a.199.199 0 0 1 .276 0l5.874 5.572c.174.166.08.505-.152.505ZM48.868 24.574h-4.096a.208.208 0 0 0-.14.058l-5.554 5.617-6.142-5.617a.208.208 0 0 0-.14-.058h-4.102c-.22 0-.304.338-.137.498l8.021 7.35a.124.124 0 0 1 .027.136.125.125 0 0 1-.027.04l-7.415 6.767c-.173.16-.082.498.14.498h4.093a.208.208 0 0 0 .14-.057l15.472-14.743c.186-.154.08-.489-.14-.489ZM166.806 27.795c.186-.162.425-.25.673-.25h12.101a.412.412 0 0 0 .417-.413v-2.114a.414.414 0 0 0-.417-.416h-13.889c-2.061 0-2.348 1.657-2.348 3.7v7.885c0 2.04.283 3.695 2.342 3.695h13.895a.419.419 0 0 0 .417-.417v-2.113a.413.413 0 0 0-.417-.413h-12.101a1.046 1.046 0 0 1-.728-.303 1.03 1.03 0 0 1-.305-.72v-1.643a.418.418 0 0 1 .42-.417h9.72a.418.418 0 0 0 .421-.417v-2.462a.417.417 0 0 0-.122-.296.43.43 0 0 0-.299-.12h-9.72a.418.418 0 0 1-.42-.417v-1.552a1.033 1.033 0 0 1 .36-.797ZM108.141 24.574a.104.104 0 0 0-.1-.063h-3.883a.108.108 0 0 0-.06.016.101.101 0 0 0-.04.047l-7.175 15.154a.11.11 0 0 0 .008.105.112.112 0 0 0 .093.052h3.767a.112.112 0 0 0 .097-.07l1.492-3.372a.114.114 0 0 1 .041-.048.106.106 0 0 1 .06-.018h7.238c.022 0 .044.007.062.019a.13.13 0 0 1 .045.047l1.48 3.372a.116.116 0 0 0 .1.07h3.876a.12.12 0 0 0 .107-.105.118.118 0 0 0-.006-.052l-7.202-15.154Zm0 8.513h-4.159a.11.11 0 0 1-.051-.012.105.105 0 0 1-.05-.133l2.086-5.35a.11.11 0 0 1 .102-.068.11.11 0 0 1 .102.069l2.074 5.352a.106.106 0 0 1 .002.047.112.112 0 0 1-.02.043.1.1 0 0 1-.037.03.102.102 0 0 1-.046.01l-.003.012ZM77.1.112h-2.683a.318.318 0 0 0-.32.317v14.736c0 .175.143.317.32.317h2.682c.177 0 .32-.142.32-.317V.43a.318.318 0 0 0-.32-.317ZM46.84 15.365h-4.178a.165.165 0 0 1-.128-.055l-3.148-3.112a.201.201 0 0 1 0-.28l1.918-2.165a.208.208 0 0 1 .304 0l5.366 5.319a.177.177 0 0 1-.039.263.18.18 0 0 1-.095.03ZM46.968.305l-7.805 8.79a2.52 2.52 0 0 1-1.638.833l-.372.036c-.036.03-5.386.052-5.386.052a.183.183 0 0 0-.18.178v4.999a.173.173 0 0 1-.11.165.177.177 0 0 1-.07.013h-2.963a.176.176 0 0 1-.18-.178V.18a.18.18 0 0 1 .054-.128.184.184 0 0 1 .13-.053h2.956c.049 0 .095.02.13.053a.18.18 0 0 1 .053.128v6.36a.18.18 0 0 0 .18.178h5.128a.172.172 0 0 0 .124-.054L42.522.051A.159.159 0 0 1 42.647 0h4.193a.18.18 0 0 1 .167.11.176.176 0 0 1-.04.195ZM95.57.217v9.566a.063.063 0 0 1-.04.06.064.064 0 0 1-.072-.017L87.325.063h-4.36a.153.153 0 0 0-.14.088.149.149 0 0 0 .023.163L95.525 15.38a.151.151 0 0 0 .119.054h3.097a.15.15 0 0 0 .152-.15V.216a.151.151 0 0 0-.152-.154h-3.015a.153.153 0 0 0-.155.154ZM85.952 15.434h-3.323V4.386a.405.405 0 0 1 .27-.382.415.415 0 0 1 .455.12l2.409 2.852c.122.146.189.33.189.52v7.938ZM55.692 3.296c.187-.16.426-.247.673-.247h12.102a.422.422 0 0 0 .42-.417V.52a.422.422 0 0 0-.42-.417h-13.89c-2.06 0-2.347 1.658-2.347 3.701v7.882c0 2.04.283 3.695 2.345 3.695h13.892a.42.42 0 0 0 .388-.255.41.41 0 0 0 .032-.159v-2.113a.415.415 0 0 0-.123-.294.422.422 0 0 0-.297-.122H56.365c-.273-.001-.534-.109-.727-.3a1.019 1.019 0 0 1-.302-.72V9.77a.41.41 0 0 1 .257-.385.42.42 0 0 1 .16-.031h9.723a.42.42 0 0 0 .386-.256.412.412 0 0 0 .031-.158V6.463a.41.41 0 0 0-.256-.385.42.42 0 0 0-.16-.032h-9.724a.419.419 0 0 1-.417-.413V4.08a1.021 1.021 0 0 1 .356-.785ZM107.569 3.296a1.02 1.02 0 0 1 .673-.247h12.098a.423.423 0 0 0 .297-.122.414.414 0 0 0 .123-.295V.52a.414.414 0 0 0-.123-.294.423.423 0 0 0-.297-.122h-13.898c-2.062 0-2.348 1.657-2.348 3.7v7.882c0 2.04.283 3.695 2.342 3.695h13.892a.418.418 0 0 0 .42-.414v-2.113a.414.414 0 0 0-.123-.294.423.423 0 0 0-.297-.122h-12.086a1.042 1.042 0 0 1-.727-.3 1.025 1.025 0 0 1-.306-.72V9.77a.418.418 0 0 1 .421-.416h9.72a.418.418 0 0 0 .42-.414V6.463a.414.414 0 0 0-.123-.295.423.423 0 0 0-.297-.122h-9.72a.423.423 0 0 1-.389-.254.413.413 0 0 1-.032-.16v-1.55a1.021 1.021 0 0 1 .36-.786ZM12.302 53.022a2.253 2.253 0 0 0-1.397-.384H9.218v-1.727h3.045v-.64H8.435v5.476h2.47c.497.028.99-.112 1.397-.395a1.434 1.434 0 0 0 .5-1.171 1.39 1.39 0 0 0-.5-1.16Zm-.581 1.862c-.271.173-.592.253-.914.226H9.21v-1.838h1.617c.32-.027.642.053.913.226a.83.83 0 0 1 .286.689.855.855 0 0 1-.304.697ZM19.282 53.022a2.256 2.256 0 0 0-1.401-.384h-1.41v-2.366h-.816v5.475h2.226c.498.028.992-.111 1.4-.395a1.429 1.429 0 0 0 .494-1.171 1.387 1.387 0 0 0-.493-1.16Zm-.588 1.862a1.45 1.45 0 0 1-.913.226h-1.322v-1.844h1.322a1.45 1.45 0 0 1 .913.226.837.837 0 0 1 .305.695.84.84 0 0 1-.305.697Zm1.855-4.612v5.475h.81v-5.475h-.81ZM27.878 54.965c-.264.1-.546.148-.828.142a1.727 1.727 0 0 1-1.364-.549 2.793 2.793 0 0 1 0-3.097 1.711 1.711 0 0 1 1.364-.543 2.23 2.23 0 0 1 .828.141c.268.113.516.268.734.46l.283-.647a2.326 2.326 0 0 0-.81-.495 2.918 2.918 0 0 0-1.047-.175 2.881 2.881 0 0 0-1.444.344 2.26 2.26 0 0 0-.913.972 3.64 3.64 0 0 0 0 2.983c.198.409.517.75.913.978.443.236.94.353 1.444.338.357.006.712-.053 1.047-.175.302-.11.578-.281.81-.501l-.283-.64c-.218.192-.466.35-.734.465ZM31.142 50.272v.676h1.885v4.8h.816v-4.8h1.885v-.676h-4.586ZM42.068 50.697a1.963 1.963 0 0 0-1.358-.425h-2.338v5.475h.813v-2.285h1.522c.49.035.976-.116 1.358-.422a1.509 1.509 0 0 0 .475-1.172 1.476 1.476 0 0 0-.472-1.17Zm-.609 1.875a1.225 1.225 0 0 1-.834.25h-1.443v-1.905h1.443c.3-.023.598.067.834.251a1.013 1.013 0 0 1 0 1.404ZM49.023 53.022a2.222 2.222 0 0 0-1.397-.384h-1.41v-2.366h-.81v5.475h2.22c.497.03.99-.11 1.397-.395a1.417 1.417 0 0 0 .5-1.171 1.372 1.372 0 0 0-.5-1.16Zm-.581 1.862a1.46 1.46 0 0 1-.899.226h-1.327v-1.844h1.327a1.46 1.46 0 0 1 .899.226.826.826 0 0 1 .304.695.829.829 0 0 1-.304.697Zm1.857-4.612v5.475h.804v-5.475H50.3ZM58.24 50.272l-3.2 4.186v-4.186h-.752v5.475h.61l3.209-4.187v4.187h.755v-5.475h-.621Zm-.505-1.618c-.095.225-.251.42-.45.564-.214.123-.46.182-.707.17-.244.01-.485-.051-.694-.176a1.09 1.09 0 0 1-.423-.57l-.439.156c.066.211.176.405.323.571.148.158.33.28.533.356.224.083.461.124.7.121a1.8 1.8 0 0 0 .962-.25c.292-.187.508-.469.61-.797l-.415-.145ZM69.968 50.272l-3.21 4.186v-4.186h-.752v5.475h.61l3.212-4.187v4.187h.758v-5.475h-.618ZM81.697 53.311a1.398 1.398 0 0 0-.703-.383c.228-.076.432-.208.594-.383a1.365 1.365 0 0 0-.177-1.9 2.23 2.23 0 0 0-1.376-.373h-2.302v5.475h2.408c.498.03.99-.108 1.398-.392a1.354 1.354 0 0 0 .493-1.123 1.257 1.257 0 0 0-.335-.92Zm-3.173-2.415h1.389c.314-.021.627.058.892.227a.763.763 0 0 1 .305.658.764.764 0 0 1-.305.658 1.475 1.475 0 0 1-.892.226h-1.389v-1.769Zm2.406 4.012c-.266.152-.57.225-.877.208h-1.522v-1.81h1.522c.307-.017.611.055.877.208a.948.948 0 0 1 .317.704.94.94 0 0 1-.317.705v-.015ZM88.6 53.022a2.234 2.234 0 0 0-1.397-.384h-1.41v-2.366h-.816v5.475h2.226c.498.03.99-.11 1.398-.395a1.434 1.434 0 0 0 .5-1.171 1.39 1.39 0 0 0-.5-1.16Zm-.58 1.862c-.272.173-.593.253-.914.226h-1.322v-1.844h1.322c.321-.027.642.053.913.226a.827.827 0 0 1 .29.695.83.83 0 0 1-.29.697Zm1.857-4.612v5.475h.803v-5.475h-.803ZM93.86 50.272v5.475h.816v-4.805h2.826v-.67H93.86ZM104.746 51.518a2.296 2.296 0 0 0-.914-.972 2.946 2.946 0 0 0-2.764 0c-.39.227-.701.566-.89.972a3.795 3.795 0 0 0 0 2.977c.195.406.507.746.896.978a2.92 2.92 0 0 0 2.74 0c.395-.23.713-.57.914-.978a3.33 3.33 0 0 0 .304-1.51 3.28 3.28 0 0 0-.286-1.467Zm-.996 3.046a1.55 1.55 0 0 1-1.285.552 1.537 1.537 0 0 1-1.288-.558 2.966 2.966 0 0 1 0-3.103 1.538 1.538 0 0 1 1.288-.553 1.571 1.571 0 0 1 1.291.553 2.906 2.906 0 0 1 0 3.109h-.006ZM112.612 55.107v-4.83h-3.88V51.7a9.557 9.557 0 0 1-.192 2.08 3.235 3.235 0 0 1-.609 1.334h-.575v1.89h.728v-1.25h4.613v1.25h.709v-1.89l-.794-.006Zm-.807 0h-3.045a3.68 3.68 0 0 0 .551-1.34c.13-.662.189-1.336.176-2.01v-.846h2.321l-.003 4.196ZM120.042 50.272v2.375h-3.1v-2.366h-.813v5.475h.813v-2.445h3.1v2.436h.816v-5.475h-.816ZM127.661 53.022a2.248 2.248 0 0 0-1.398-.384h-1.41v-2.366h-.816v5.475h2.226a2.23 2.23 0 0 0 1.398-.395 1.43 1.43 0 0 0 .493-1.171 1.399 1.399 0 0 0-.493-1.16Zm-.588 1.862c-.27.175-.592.255-.914.226h-1.321v-1.844h1.321c.322-.029.644.051.914.226a.815.815 0 0 1 .304.694.846.846 0 0 1-.304.697Zm1.857-4.612v5.475h.81v-5.475h-.81ZM136.872 50.272l-3.201 4.186v-4.186h-.736v5.475h.609l3.212-4.193v4.193h.746v-5.475h-.63Zm-.5-1.618a1.286 1.286 0 0 1-.456.564 1.51 1.51 0 0 1-1.398 0 1.136 1.136 0 0 1-.423-.57l-.442.157c.068.21.18.405.329.57.145.16.327.282.53.356.225.084.463.125.703.121.339.008.674-.079.966-.25.288-.19.503-.47.609-.797l-.418-.151ZM149.314 51.518a2.313 2.313 0 0 0-.892-.972 2.964 2.964 0 0 0-2.774 0 2.24 2.24 0 0 0-.886.972 3.379 3.379 0 0 0-.305 1.491c-.014.512.09 1.02.305 1.486.192.405.5.745.886.978a2.942 2.942 0 0 0 2.762 0c.388-.234.7-.573.898-.978.22-.473.324-.99.305-1.51a3.23 3.23 0 0 0-.299-1.467Zm-.986 3.046a1.572 1.572 0 0 1-1.285.552 1.554 1.554 0 0 1-1.294-.558 2.966 2.966 0 0 1 0-3.103 1.787 1.787 0 0 1 2.579 0 2.896 2.896 0 0 1 0 3.109ZM156.489 53.022a2.23 2.23 0 0 0-1.398-.384h-1.681v-1.727h3.045v-.64h-3.834v5.476h2.47c.498.03.991-.11 1.398-.395a1.414 1.414 0 0 0 .499-1.171 1.375 1.375 0 0 0-.499-1.16Zm-.582 1.862a1.46 1.46 0 0 1-.914.226h-1.598v-1.838h1.598a1.46 1.46 0 0 1 .914.226.808.808 0 0 1 .286.689.82.82 0 0 1-.286.697ZM164.604 50.272l-2.016 4.503-2.013-4.503h-.721v5.475h.746v-3.785l1.723 3.785h.509l1.729-3.81v3.81h.74v-5.475h-.697ZM172.11 50.918v-.646h-3.614v5.475h3.614v-.652h-2.826v-1.81h2.65v-.638h-2.65v-1.723l2.826-.006ZM178.916 50.272v2.375h-3.1v-2.366H175v5.475h.816v-2.445h3.1v2.436h.816v-5.475h-.816ZM14.379 13.62h5.996a.156.156 0 0 1 .138.086.152.152 0 0 1-.016.161l-8.393 10.726-5.152 6.577-6.675 8.636a.155.155 0 0 1-.268-.15l6.858-16.893a.153.153 0 0 0-.073-.194.158.158 0 0 0-.073-.017H1.906a.158.158 0 0 1-.133-.077.153.153 0 0 1 0-.152L14.506.063a.152.152 0 0 1 .137-.075h8.268a.156.156 0 0 1 .135.082.153.153 0 0 1-.008.156L14.25 13.37a.154.154 0 0 0-.018.168.155.155 0 0 0 .148.083Z"/></g><defs><clipPath id="a"><path fill="#fff" d="M0 0h180v57H0z"/></clipPath></defs></svg>