<svg width="40" height="40" viewBox="0 0 40 40" fill="none" xmlns="http://www.w3.org/2000/svg"><path fill-rule="evenodd" clip-rule="evenodd" d="M19.144 7.947C12.87 8.386 7.917 13.614 7.917 20c0 6.674 5.41 12.083 12.083 12.083 5.346 0 9.883-3.473 11.475-8.285a10.388 10.388 0 0 1-3.975.785c-5.753 0-10.417-4.663-10.417-10.416 0-2.332.767-4.485 2.06-6.22ZM5.417 20c0-8.054 6.529-14.583 14.583-14.583.75 0 1.486.056 2.207.166a1.25 1.25 0 0 1 .56 2.237A7.917 7.917 0 0 0 27.5 22.083c1.89 0 3.623-.66 4.984-1.765a1.25 1.25 0 0 1 2.032 1.09C33.807 28.802 27.58 34.583 20 34.583c-8.054 0-14.583-6.529-14.583-14.583Z" fill="#5E5E5D"/></svg>