<svg width="48" height="48" viewBox="0 0 48 48" fill="none" xmlns="http://www.w3.org/2000/svg"><path fill-rule="evenodd" clip-rule="evenodd" d="M15.5 15a8.5 8.5 0 1 1 17 0 8.5 8.5 0 0 1-17 0ZM24 9.5a5.5 5.5 0 1 0 0 11 5.5 5.5 0 0 0 0-11ZM16 29.5a4.5 4.5 0 0 0-4.5 4.5v2.377c0 .036.026.067.062.072a77.192 77.192 0 0 0 24.876 0 .074.074 0 0 0 .062-.072V34a4.5 4.5 0 0 0-4.5-4.5h-.682a.499.499 0 0 0-.155.025l-1.731.565a17.499 17.499 0 0 1-10.864 0l-1.731-.565a.499.499 0 0 0-.155-.025H16ZM8.5 34a7.5 7.5 0 0 1 7.5-7.5h.682c.369 0 .735.058 1.086.173l1.731.565a14.5 14.5 0 0 0 9.002 0l1.73-.565c.352-.115.718-.173 1.087-.173H32a7.5 7.5 0 0 1 7.5 7.5v2.377a3.074 3.074 0 0 1-2.578 3.033 80.19 80.19 0 0 1-25.843 0A3.074 3.074 0 0 1 8.5 36.377V34Z" fill="#1F1F1E"/></svg>