<svg width="24" height="25" viewBox="0 0 24 25" fill="none" xmlns="http://www.w3.org/2000/svg"><path fill-rule="evenodd" clip-rule="evenodd" d="M7.75 8a4.25 4.25 0 1 1 8.5 0 4.25 4.25 0 0 1-8.5 0ZM12 5.25a2.75 2.75 0 1 0 0 5.5 2.75 2.75 0 0 0 0-5.5ZM8 15.25a2.25 2.25 0 0 0-2.25 2.25v1.188c0 .018.013.034.031.037 4.119.672 8.32.672 12.438 0a.037.037 0 0 0 .031-.037V17.5A2.25 2.25 0 0 0 16 15.25h-.34a.253.253 0 0 0-.079.012l-.865.283a8.751 8.751 0 0 1-5.432 0l-.866-.283a.252.252 0 0 0-.077-.012H8ZM4.25 17.5A3.75 3.75 0 0 1 8 13.75h.34c.185 0 .369.03.544.086l.866.283a7.251 7.251 0 0 0 4.5 0l.866-.283c.175-.057.359-.086.543-.086H16a3.75 3.75 0 0 1 3.75 3.75v1.188c0 .754-.546 1.396-1.29 1.517a40.095 40.095 0 0 1-12.92 0 1.537 1.537 0 0 1-1.29-1.517V17.5Z" fill="#1F1F1E"/></svg>