<svg width="64" height="64" viewBox="0 0 64 64" fill="none" xmlns="http://www.w3.org/2000/svg">
<path fill-rule="evenodd" clip-rule="evenodd" d="M30.4404 6.38711C31.4567 6.07474 32.5434 6.07474 33.5598 6.38711L41.5217 8.83423C45.6754 10.1109 49.6202 11.9878 53.231 14.4056C56.0394 16.2861 54.7082 20.6667 51.3283 20.6667H12.6718C9.29197 20.6667 7.96077 16.2861 10.7692 14.4056C14.3799 11.9878 18.3247 10.1109 22.4784 8.83423L30.4404 6.38711ZM32.3846 10.2106C32.134 10.1336 31.8661 10.1336 31.6155 10.2106L23.6536 12.6577C20.5048 13.6255 17.4878 14.9723 14.6686 16.6667H49.3316C46.5123 14.9723 43.4954 13.6255 40.3466 12.6577L32.3846 10.2106Z" fill="#1F1F1E"/>
<path d="M11.3334 56.0001C11.3334 54.8955 12.2288 54.0001 13.3334 54.0001H50.6667C51.7713 54.0001 52.6667 54.8955 52.6667 56.0001C52.6667 57.1046 51.7713 58.0001 50.6667 58.0001H13.3334C12.2288 58.0001 11.3334 57.1046 11.3334 56.0001Z" fill="#1F1F1E"/>
<path d="M16.6667 45.3334C16.6667 46.438 17.5622 47.3334 18.6667 47.3334C19.7713 47.3334 20.6667 46.438 20.6667 45.3334L20.6667 29.3334C20.6667 28.2288 19.7713 27.3334 18.6667 27.3334C17.5622 27.3334 16.6667 28.2288 16.6667 29.3334L16.6667 45.3334Z" fill="#1F1F1E"/>
<path d="M32.0001 47.3334C30.8955 47.3334 30.0001 46.438 30.0001 45.3334L30.0001 29.3334C30.0001 28.2288 30.8955 27.3334 32.0001 27.3334C33.1047 27.3334 34.0001 28.2288 34.0001 29.3334V45.3334C34.0001 46.438 33.1047 47.3334 32.0001 47.3334Z" fill="#1F1F1E"/>
<path d="M43.3334 45.3334C43.3334 46.438 44.2288 47.3334 45.3334 47.3334C46.438 47.3334 47.3334 46.438 47.3334 45.3334V29.3334C47.3334 28.2288 46.438 27.3334 45.3334 27.3334C44.2288 27.3334 43.3334 28.2288 43.3334 29.3334V45.3334Z" fill="#1F1F1E"/>
</svg>
