<svg width="64" height="64" viewBox="0 0 64 64" fill="none" xmlns="http://www.w3.org/2000/svg">
<path fill-rule="evenodd" clip-rule="evenodd" d="M18.6667 8.6665C19.7712 8.6665 20.6667 9.56193 20.6667 10.6665V15.1135C28.2073 14.442 35.7927 14.442 43.3333 15.1135V10.6665C43.3333 9.56193 44.2288 8.6665 45.3333 8.6665C46.4379 8.6665 47.3333 9.56193 47.3333 10.6665V15.5103C51.3148 16.0733 54.4602 19.2224 54.9926 23.2394L55.2234 24.9806C56.1942 32.3041 56.1104 39.729 54.9745 47.0288C54.4118 50.6449 51.474 53.4224 47.8321 53.7815L44.6507 54.0953C36.2373 54.925 27.7626 54.925 19.3491 54.0953L16.1678 53.7815C12.5258 53.4224 9.58806 50.6449 9.02536 47.0288C7.88948 39.729 7.80563 32.3042 8.7764 24.9806L9.0072 23.2394C9.53967 19.2224 12.6851 16.0732 16.6667 15.5103V10.6665C16.6667 9.56193 17.5621 8.6665 18.6667 8.6665ZM19.8538 19.2073C27.9316 18.4107 36.0682 18.4107 44.1461 19.2073L46.5606 19.4454C48.8719 19.6734 50.7221 21.4626 51.0273 23.765L51.2581 25.5062C51.3388 26.1145 51.4117 26.7235 51.477 27.3332H12.5228C12.5881 26.7235 12.6611 26.1145 12.7417 25.5062L12.9725 23.765C13.2777 21.4626 15.1279 19.6734 17.4392 19.4454L19.8538 19.2073ZM12.2049 31.3332C11.9431 36.368 12.201 41.4217 12.9778 46.4137C13.26 48.2276 14.7336 49.6207 16.5604 49.8008L19.7417 50.1146C27.8941 50.9185 36.1058 50.9185 44.2581 50.1146L47.4395 49.8008C49.2663 49.6207 50.7398 48.2276 51.022 46.4137C51.7988 41.4217 52.0568 36.368 51.795 31.3332H12.2049Z" fill="#1F1F1E"/>
</svg>
