<svg width="64" height="64" viewBox="0 0 64 64" fill="none" xmlns="http://www.w3.org/2000/svg">
<path fill-rule="evenodd" clip-rule="evenodd" d="M26.5041 6.69922C30.6625 6.22591 34.8611 6.22591 39.0195 6.69922L43.2737 7.18344C43.883 7.2528 44.4269 7.59788 44.7491 8.11966C45.0714 8.64144 45.1364 9.28223 44.9256 9.85813L39.0523 25.9023H45.3332C45.9893 25.9023 46.6037 26.2241 46.9773 26.7635C47.3509 27.3028 47.4362 27.9911 47.2056 28.6053L46.6977 29.9579C43.1745 39.3419 38.1933 48.1115 31.9378 55.9436L30.8959 57.248C30.3657 57.9119 29.4738 58.1683 28.6719 57.8874C27.8701 57.6065 27.3332 56.8495 27.3332 55.9999V36.9267H22.4761C21.44 36.9267 20.5755 36.1355 20.4839 35.1035L20.1569 31.4188C19.6036 25.1843 19.6036 18.913 20.1569 12.6786L20.4839 8.99381C20.5679 8.04752 21.306 7.29088 22.2499 7.18344L26.5041 6.69922ZM38.5671 10.6736C34.7093 10.2345 30.8142 10.2345 26.9565 10.6736L24.324 10.9732L24.1412 13.0321C23.6088 19.0314 23.6088 25.0659 24.1412 31.0652L24.3064 32.9267H29.3332C30.4378 32.9267 31.3332 33.8221 31.3332 34.9267V50.1393C35.8722 43.8932 39.6029 37.0936 42.4337 29.9023H36.1904C35.5372 29.9023 34.9251 29.5834 34.551 29.048C34.1768 28.5125 34.0877 27.8282 34.3122 27.2148L40.2955 10.8703L38.5671 10.6736Z" fill="#1F1F1E"/>
</svg>
