<svg width="180" height="57" viewBox="0 0 180 57" fill="none" xmlns="http://www.w3.org/2000/svg">
<g clip-path="url(#clip0_2501_4985)">
<path d="M88.89 24.6257V32.9449C88.89 32.9793 88.8762 33.0123 88.8516 33.0367C88.8271 33.061 88.7938 33.0747 88.759 33.0747H79.0147C78.9799 33.0747 78.9466 33.061 78.9221 33.0367C78.8975 33.0123 78.8837 32.9793 78.8837 32.9449V24.6257C78.8837 24.592 78.8703 24.5598 78.8463 24.536C78.8223 24.5122 78.7898 24.4989 78.7558 24.4989H75.6864C75.6693 24.4985 75.6524 24.5015 75.6365 24.5076C75.6206 24.5138 75.6061 24.5231 75.5939 24.5349C75.5817 24.5467 75.5721 24.5609 75.5654 24.5764C75.5588 24.592 75.5554 24.6088 75.5554 24.6257V39.7427C75.5554 39.7597 75.5588 39.7764 75.5654 39.792C75.5721 39.8076 75.5817 39.8217 75.5939 39.8335C75.6061 39.8453 75.6206 39.8546 75.6365 39.8608C75.6524 39.8669 75.6693 39.8699 75.6864 39.8695H78.7497C78.7837 39.8695 78.8162 39.8562 78.8402 39.8324C78.8642 39.8086 78.8776 39.7764 78.8776 39.7427V36.4947C78.8776 36.4778 78.881 36.4611 78.8877 36.4455C78.8943 36.4299 78.904 36.4158 78.9162 36.404C78.9284 36.3922 78.9428 36.3829 78.9587 36.3767C78.9746 36.3705 78.9915 36.3676 79.0086 36.368H88.753C88.77 36.3676 88.787 36.3705 88.8028 36.3767C88.8187 36.3829 88.8332 36.3922 88.8454 36.404C88.8576 36.4158 88.8673 36.4299 88.8739 36.4455C88.8805 36.4611 88.8839 36.4778 88.8839 36.4947V39.7427C88.8839 39.7764 88.8974 39.8086 88.9214 39.8324C88.9453 39.8562 88.9779 39.8695 89.0118 39.8695H92.0752C92.0922 39.8699 92.1092 39.8669 92.1251 39.8608C92.1409 39.8546 92.1554 39.8453 92.1676 39.8335C92.1798 39.8217 92.1895 39.8076 92.1961 39.792C92.2027 39.7764 92.2061 39.7597 92.2061 39.7427V24.6257C92.2061 24.6088 92.2027 24.592 92.1961 24.5764C92.1895 24.5609 92.1798 24.5467 92.1676 24.5349C92.1554 24.5231 92.1409 24.5138 92.1251 24.5076C92.1092 24.5015 92.0922 24.4985 92.0752 24.4989H89.0179C88.984 24.4989 88.9514 24.5122 88.9274 24.536C88.9035 24.5598 88.89 24.592 88.89 24.6257Z" fill="#1F1F1E"/>
<path d="M57.8178 27.5446H69.9008C70.0163 27.5446 70.1271 27.4992 70.2087 27.4182C70.2904 27.3373 70.3363 27.2275 70.3363 27.113V25.0211C70.3363 24.9645 70.325 24.9086 70.3031 24.8564C70.2811 24.8042 70.249 24.7568 70.2085 24.7169C70.1681 24.6771 70.12 24.6456 70.0672 24.6242C70.0144 24.6028 69.9578 24.5921 69.9008 24.5924H57.4158C56.9258 24.5921 56.4406 24.6874 55.9878 24.8731C55.5351 25.0588 55.1237 25.3312 54.7772 25.6746C54.4308 26.0181 54.156 26.4259 53.9687 26.8747C53.7814 27.3235 53.6851 27.8045 53.6855 28.2902V36.1748C53.6859 36.66 53.7828 37.1403 53.9704 37.5885C54.1581 38.0366 54.433 38.4437 54.7794 38.7865C55.1258 39.1293 55.5369 39.4011 55.9892 39.5864C56.4416 39.7717 56.9264 39.8669 57.4158 39.8665H69.9008C70.0163 39.8665 70.1271 39.821 70.2087 39.7401C70.2904 39.6591 70.3363 39.5493 70.3363 39.4348V37.343C70.3363 37.2864 70.325 37.2304 70.3031 37.1782C70.2811 37.126 70.249 37.0786 70.2085 37.0388C70.1681 36.999 70.12 36.9675 70.0672 36.9461C70.0144 36.9247 69.9578 36.9139 69.9008 36.9143H57.8117C57.5376 36.9135 57.2751 36.805 57.0816 36.6127C56.8881 36.4203 56.7794 36.1597 56.7794 35.888V28.5679C56.7794 28.433 56.8063 28.2995 56.8585 28.1749C56.9108 28.0504 56.9874 27.9373 57.0839 27.8422C57.1804 27.7471 57.2949 27.6719 57.4209 27.6208C57.5468 27.5697 57.6817 27.5438 57.8178 27.5446Z" fill="#1F1F1E"/>
<path d="M145.864 27.5446H157.874C157.908 27.545 157.942 27.5387 157.973 27.5262C158.004 27.5136 158.033 27.495 158.057 27.4714C158.081 27.4478 158.1 27.4197 158.113 27.3888C158.126 27.3578 158.133 27.3246 158.133 27.291V24.846C158.133 24.7779 158.106 24.7127 158.057 24.6646C158.009 24.6164 157.943 24.5894 157.874 24.5894H145.462C144.937 24.5878 144.417 24.689 143.931 24.8872C143.446 25.0854 143.004 25.3767 142.633 25.7444C142.261 26.1121 141.966 26.5489 141.765 27.0298C141.564 27.5107 141.461 28.0262 141.461 28.5468V35.9182C141.461 36.9656 141.88 37.9702 142.627 38.7111C143.374 39.4521 144.387 39.8687 145.444 39.8695H155.164C155.828 39.8618 156.49 39.8194 157.149 39.7427C157.445 39.6184 157.696 39.4107 157.873 39.1456C158.051 38.8804 158.145 38.5695 158.145 38.2515V31.9125C158.145 31.8445 158.118 31.7792 158.069 31.7311C158.021 31.683 157.955 31.6559 157.886 31.6559H152.021C151.987 31.6559 151.954 31.6626 151.922 31.6754C151.891 31.6883 151.862 31.7072 151.838 31.7311C151.814 31.7549 151.795 31.7832 151.782 31.8143C151.769 31.8454 151.763 31.8788 151.763 31.9125V34.3545C151.763 34.4221 151.791 34.4865 151.839 34.534C151.888 34.5815 151.953 34.6081 152.021 34.6081H154.896C154.964 34.6089 155.029 34.6363 155.077 34.6843C155.125 34.7324 155.152 34.7972 155.152 34.8647V36.6487C155.152 36.7162 155.125 36.781 155.077 36.829C155.029 36.8771 154.964 36.9044 154.896 36.9052H145.864C145.522 36.9044 145.195 36.7693 144.953 36.5293C144.712 36.2894 144.576 35.9643 144.576 35.6254V28.8245C144.576 28.4856 144.712 28.1605 144.953 27.9205C145.195 27.6806 145.522 27.5454 145.864 27.5446Z" fill="#1F1F1E"/>
<path d="M123.321 39.8906H119.996V28.8396C119.996 28.7558 120.022 28.674 120.071 28.6054C120.119 28.5368 120.188 28.4848 120.268 28.4564C120.347 28.428 120.434 28.4246 120.515 28.4467C120.597 28.4689 120.67 28.5154 120.724 28.58L123.129 31.4295C123.252 31.5752 123.32 31.7588 123.321 31.9487V39.8906Z" fill="#1F1F1E"/>
<path d="M132.935 24.6709V34.2338C132.934 34.2466 132.93 34.259 132.922 34.2694C132.915 34.2798 132.904 34.2876 132.892 34.2918C132.88 34.2961 132.866 34.2966 132.854 34.2932C132.841 34.2898 132.83 34.2828 132.822 34.273L124.688 24.526H120.331C120.301 24.5265 120.273 24.5353 120.248 24.5513C120.224 24.5673 120.204 24.5899 120.192 24.6165C120.18 24.6431 120.176 24.6725 120.18 24.7014C120.184 24.7302 120.196 24.7574 120.215 24.7796L132.892 39.8454C132.907 39.8621 132.925 39.8756 132.946 39.885C132.966 39.8943 132.988 39.8994 133.011 39.8997H136.108C136.128 39.8997 136.148 39.8957 136.167 39.8879C136.185 39.8802 136.202 39.8688 136.216 39.8544C136.231 39.8401 136.242 39.8231 136.249 39.8044C136.257 39.7858 136.26 39.7658 136.26 39.7457V24.6709C136.26 24.6309 136.244 24.5925 136.215 24.5642C136.187 24.5359 136.148 24.52 136.108 24.52H133.093C133.072 24.5192 133.052 24.5225 133.033 24.5297C133.014 24.5369 132.996 24.5479 132.981 24.562C132.967 24.5761 132.955 24.593 132.947 24.6117C132.939 24.6304 132.935 24.6506 132.935 24.6709Z" fill="#1F1F1E"/>
<path d="M24.437 37.3279V39.4409C24.4374 39.4953 24.4268 39.5492 24.406 39.5996C24.3852 39.65 24.3545 39.6957 24.3157 39.7342C24.2768 39.7727 24.2307 39.8031 24.1799 39.8238C24.1291 39.8444 24.0747 39.8548 24.0198 39.8544H10.1279C8.07249 39.8544 7.7832 38.2002 7.7832 36.1627V33.9018L10.4142 30.536H21.0295C21.1401 30.536 21.2462 30.5796 21.3245 30.6572C21.4027 30.7347 21.4467 30.8399 21.4467 30.9496V33.4128C21.4471 33.4675 21.4366 33.5217 21.4158 33.5724C21.3951 33.6231 21.3645 33.6692 21.3257 33.7082C21.287 33.7472 21.2409 33.7782 21.1901 33.7995C21.1392 33.8208 21.0847 33.8319 21.0295 33.8323H11.3095C11.1988 33.8323 11.0927 33.8759 11.0145 33.9535C10.9362 34.031 10.8923 34.1362 10.8923 34.2459V35.888C10.8891 36.143 10.9851 36.3894 11.1602 36.5762C11.2556 36.6822 11.3724 36.7671 11.503 36.8253C11.6337 36.8836 11.7752 36.9139 11.9185 36.9143H24.0198C24.1304 36.9143 24.2365 36.9579 24.3148 37.0354C24.393 37.113 24.437 37.2182 24.437 37.3279Z" fill="#1F1F1E"/>
<path d="M24.6502 25.003V27.1311C24.6494 27.2405 24.6052 27.3452 24.5272 27.4226C24.4491 27.5 24.3434 27.5438 24.233 27.5446H12.759L15.0733 24.5924H24.2239C24.2792 24.5912 24.3342 24.601 24.3857 24.621C24.4371 24.6411 24.4841 24.6711 24.5237 24.7093C24.5634 24.7475 24.595 24.7931 24.6167 24.8435C24.6384 24.894 24.6498 24.9482 24.6502 25.003Z" fill="#1F1F1E"/>
<path d="M48.8893 39.8695H44.8058C44.7534 39.8686 44.7034 39.8481 44.6657 39.8121L40.841 36.1084C40.8106 36.0801 40.7863 36.046 40.7698 36.0081C40.7532 35.9702 40.7446 35.9293 40.7446 35.888C40.7446 35.8467 40.7532 35.8058 40.7698 35.7679C40.7863 35.73 40.8106 35.6959 40.841 35.6676L42.8904 33.7931C42.9274 33.7571 42.9771 33.737 43.0289 33.737C43.0808 33.737 43.1305 33.7571 43.1675 33.7931L49.0415 39.3654C49.2151 39.5314 49.1207 39.8695 48.8893 39.8695Z" fill="#1F1F1E"/>
<path d="M48.8681 24.5743H44.7724C44.7201 24.5752 44.67 24.5957 44.6323 24.6317L39.078 30.2493L32.936 24.6317C32.8983 24.5957 32.8483 24.5752 32.796 24.5743H28.6942C28.4749 24.5743 28.3897 24.9124 28.5572 25.0724L36.578 32.4227C36.5896 32.4342 36.5988 32.4478 36.6051 32.4628C36.6114 32.4779 36.6146 32.4939 36.6146 32.5102C36.6146 32.5265 36.6114 32.5426 36.6051 32.5576C36.5988 32.5726 36.5896 32.5863 36.578 32.5978L29.1631 39.3654C28.9896 39.5254 29.0809 39.8635 29.3032 39.8635H33.3958C33.4482 39.8626 33.4982 39.8421 33.5359 39.8061L49.0082 25.0634C49.1939 24.9094 49.0873 24.5743 48.8681 24.5743Z" fill="#1F1F1E"/>
<path d="M166.806 27.7952C166.992 27.6332 167.231 27.5441 167.479 27.5446H179.58C179.69 27.5446 179.797 27.5011 179.875 27.4235C179.953 27.346 179.997 27.2408 179.997 27.1311V25.0181C179.997 24.9635 179.987 24.9094 179.966 24.8589C179.945 24.8084 179.915 24.7624 179.876 24.7237C179.837 24.685 179.791 24.6542 179.74 24.6333C179.689 24.6123 179.635 24.6015 179.58 24.6015H165.691C163.63 24.6015 163.343 26.2587 163.343 28.3023V36.1868C163.343 38.2274 163.626 39.8816 165.685 39.8816H179.58C179.635 39.8816 179.689 39.8708 179.74 39.8498C179.791 39.8289 179.837 39.7981 179.876 39.7594C179.915 39.7207 179.945 39.6747 179.966 39.6242C179.987 39.5737 179.997 39.5196 179.997 39.465V37.352C179.997 37.2423 179.953 37.1372 179.875 37.0596C179.797 36.982 179.69 36.9385 179.58 36.9385H167.479C167.205 36.9361 166.944 36.8275 166.751 36.6361C166.558 36.4447 166.449 36.1858 166.446 35.9152V34.2731C166.446 34.1626 166.491 34.0566 166.569 33.9785C166.648 33.9004 166.755 33.8565 166.866 33.8565H176.586C176.698 33.8565 176.805 33.8126 176.884 33.7345C176.962 33.6564 177.007 33.5504 177.007 33.4399V30.9768C177.007 30.9219 176.997 30.8676 176.976 30.8169C176.955 30.7662 176.924 30.7201 176.885 30.6813C176.845 30.6425 176.799 30.6119 176.748 30.5911C176.697 30.5703 176.642 30.5598 176.586 30.5602H166.866C166.755 30.5602 166.648 30.5163 166.569 30.4382C166.491 30.3601 166.446 30.2541 166.446 30.1436V28.5921C166.444 28.4413 166.474 28.2917 166.536 28.154C166.599 28.0163 166.69 27.8938 166.806 27.7952Z" fill="#1F1F1E"/>
<path d="M108.141 24.5743C108.133 24.5548 108.119 24.5382 108.101 24.5269C108.083 24.5155 108.062 24.51 108.041 24.5109H104.158C104.137 24.5104 104.116 24.5161 104.098 24.5274C104.08 24.5387 104.066 24.555 104.058 24.5743L96.8835 39.7276C96.8759 39.7445 96.8727 39.7628 96.8741 39.7812C96.8755 39.7995 96.8814 39.8173 96.8913 39.8328C96.9013 39.8483 96.9149 39.8612 96.9311 39.8702C96.9472 39.8793 96.9654 39.8842 96.9839 39.8846H100.751C100.772 39.8833 100.792 39.8761 100.81 39.8638C100.827 39.8515 100.84 39.8347 100.848 39.8152L102.34 36.4434C102.349 36.4238 102.363 36.4071 102.381 36.3953C102.398 36.3835 102.419 36.3771 102.441 36.377H109.679C109.701 36.3777 109.723 36.3843 109.741 36.3959C109.76 36.4076 109.775 36.424 109.786 36.4434L111.266 39.8152C111.274 39.8349 111.288 39.8519 111.306 39.8642C111.324 39.8764 111.344 39.8835 111.366 39.8846H115.242C115.26 39.8829 115.278 39.8771 115.293 39.8678C115.309 39.8584 115.322 39.8456 115.331 39.8305C115.341 39.8153 115.347 39.7982 115.349 39.7804C115.351 39.7626 115.349 39.7445 115.343 39.7276L108.141 24.5743ZM108.141 33.0868H103.982C103.964 33.087 103.947 33.083 103.931 33.075C103.916 33.067 103.902 33.0553 103.892 33.041C103.882 33.0266 103.876 33.0101 103.874 32.9928C103.872 32.9755 103.875 32.958 103.881 32.9418L105.967 27.5929C105.975 27.5726 105.989 27.5552 106.007 27.5429C106.026 27.5306 106.047 27.524 106.069 27.524C106.091 27.524 106.113 27.5306 106.131 27.5429C106.149 27.5552 106.163 27.5726 106.171 27.5929L108.245 32.9449C108.249 32.9602 108.25 32.9762 108.247 32.9918C108.243 33.0073 108.237 33.0219 108.227 33.0345C108.217 33.0471 108.205 33.0573 108.19 33.0642C108.176 33.0712 108.16 33.0748 108.144 33.0747L108.141 33.0868Z" fill="#1F1F1E"/>
<path d="M77.0994 0.111694H74.4167C74.2401 0.111694 74.0969 0.253598 74.0969 0.428646V15.1654C74.0969 15.3404 74.2401 15.4823 74.4167 15.4823H77.0994C77.276 15.4823 77.4192 15.3404 77.4192 15.1654V0.428646C77.4192 0.253598 77.276 0.111694 77.0994 0.111694Z" fill="#1F1F1E"/>
<path d="M46.84 15.3646H42.6621C42.638 15.3654 42.6141 15.3609 42.592 15.3515C42.5699 15.3421 42.5502 15.3281 42.5342 15.3103L39.3855 12.1981C39.3489 12.1604 39.3284 12.1101 39.3284 12.0578C39.3284 12.0054 39.3489 11.9551 39.3855 11.9174L41.3039 9.75306C41.3233 9.73221 41.3469 9.71557 41.3731 9.70418C41.3993 9.6928 41.4276 9.68692 41.4562 9.68692C41.4848 9.68692 41.5131 9.6928 41.5393 9.70418C41.5655 9.71557 41.5891 9.73221 41.6084 9.75306L46.9739 15.0718C46.9958 15.0975 47.0099 15.1289 47.0145 15.1622C47.0192 15.1955 47.0142 15.2295 47.0001 15.2601C46.9861 15.2908 46.9636 15.3168 46.9353 15.3353C46.9069 15.3538 46.8739 15.364 46.84 15.3646Z" fill="#1F1F1E"/>
<path d="M46.9678 0.304877L39.1632 9.095C38.7431 9.56823 38.1577 9.86596 37.5249 9.92814L37.1534 9.96436C37.1168 9.99454 31.7666 10.0157 31.7666 10.0157C31.7192 10.0164 31.6739 10.0355 31.6404 10.0687C31.6069 10.1019 31.5877 10.1468 31.5869 10.1938V15.1926C31.5873 15.2161 31.583 15.2394 31.5741 15.2612C31.5652 15.283 31.552 15.3028 31.5352 15.3194C31.5184 15.336 31.4985 15.3491 31.4765 15.3579C31.4545 15.3667 31.4309 15.3711 31.4072 15.3706H28.4443C28.4206 15.3711 28.3971 15.3667 28.3751 15.3579C28.3531 15.3491 28.3331 15.336 28.3164 15.3194C28.2996 15.3028 28.2864 15.283 28.2775 15.2612C28.2686 15.2394 28.2643 15.2161 28.2647 15.1926V0.181114C28.2647 0.133079 28.2839 0.0870143 28.3182 0.0530486C28.3525 0.0190829 28.3989 -3.34487e-06 28.4474 -3.34487e-06H31.4042C31.4526 -3.34487e-06 31.4991 0.0190829 31.5334 0.0530486C31.5677 0.0870143 31.5869 0.133079 31.5869 0.181114V6.54128C31.5877 6.58827 31.6069 6.63312 31.6404 6.66635C31.6739 6.69958 31.7192 6.7186 31.7666 6.71938H36.8945C36.918 6.71932 36.9412 6.71447 36.9627 6.70512C36.9842 6.69577 37.0035 6.68213 37.0194 6.66504L42.5219 0.0513167C42.5376 0.0341611 42.557 0.0206602 42.5785 0.011788C42.6001 0.00291584 42.6234 -0.0011117 42.6468 -3.34487e-06H46.8399C46.8757 -0.000343679 46.9108 0.00992028 46.9406 0.0294658C46.9705 0.0490114 46.9938 0.0769483 47.0075 0.109702C47.0213 0.142456 47.0248 0.178537 47.0177 0.21331C47.0107 0.248082 46.9933 0.279965 46.9678 0.304877Z" fill="#1F1F1E"/>
<path d="M95.5709 0.217342V9.78325C95.5712 9.79633 95.5674 9.80916 95.56 9.81999C95.5526 9.83083 95.542 9.83912 95.5296 9.84375C95.5173 9.84838 95.5038 9.84911 95.491 9.84584C95.4783 9.84258 95.4668 9.83548 95.4583 9.82551L87.3248 0.0633908H82.9641C82.9347 0.0631354 82.9059 0.071323 82.8811 0.0869551C82.8563 0.102587 82.8366 0.124995 82.8244 0.151485C82.8121 0.177975 82.8079 0.20741 82.8122 0.236236C82.8164 0.265061 82.829 0.292052 82.8484 0.313939L95.5253 15.3797C95.5397 15.3969 95.5579 15.4108 95.5785 15.4202C95.599 15.4296 95.6214 15.4343 95.644 15.434H98.7409C98.7813 15.434 98.82 15.4181 98.8486 15.3898C98.8771 15.3615 98.8932 15.3231 98.8932 15.2831V0.217342C98.8936 0.197269 98.8899 0.177323 98.8825 0.158661C98.875 0.14 98.8638 0.122995 98.8497 0.108659C98.8355 0.0943222 98.8186 0.0829367 98.7999 0.0751637C98.7812 0.0673908 98.7612 0.0633868 98.7409 0.0633908H95.7262C95.685 0.0633908 95.6456 0.0796127 95.6164 0.108484C95.5873 0.137354 95.5709 0.176512 95.5709 0.217342Z" fill="#1F1F1E"/>
<path d="M85.9516 15.434H82.6294V4.386C82.6296 4.30261 82.6555 4.22127 82.7038 4.15297C82.7521 4.08468 82.8203 4.03271 82.8993 4.00408C82.9784 3.97545 83.0643 3.97153 83.1457 3.99287C83.227 4.01421 83.2998 4.05976 83.3541 4.12339L85.7628 6.97596C85.885 7.12186 85.9518 7.30554 85.9516 7.49515V15.434Z" fill="#1F1F1E"/>
<path d="M55.6923 3.2963C55.8794 3.13641 56.1182 3.04856 56.3652 3.04878H68.4666C68.578 3.04878 68.6849 3.00488 68.7637 2.92676C68.8425 2.84864 68.8868 2.74269 68.8868 2.63221V0.519197C68.8868 0.408717 68.8425 0.302765 68.7637 0.224644C68.6849 0.146522 68.578 0.102631 68.4666 0.102631H54.5778C52.5162 0.102631 52.23 1.75984 52.23 3.80342V11.685C52.23 13.7255 52.5132 15.3797 54.5747 15.3797H68.4666C68.5216 15.3801 68.5762 15.3697 68.6271 15.3491C68.6781 15.3285 68.7245 15.2981 68.7635 15.2597C68.8026 15.2212 68.8336 15.1755 68.8547 15.1251C68.8759 15.0747 68.8868 15.0207 68.8868 14.9662V12.8532C68.8868 12.7427 68.8425 12.6367 68.7637 12.5586C68.6849 12.4805 68.578 12.4366 68.4666 12.4366H56.3652C56.0925 12.4358 55.8312 12.328 55.6384 12.1369C55.4455 11.9457 55.3368 11.6867 55.336 11.4163V9.77117C55.3356 9.71661 55.3461 9.66251 55.3669 9.61198C55.3877 9.56146 55.4183 9.51552 55.4571 9.4768C55.4959 9.43808 55.542 9.40734 55.5928 9.38637C55.6436 9.3654 55.6981 9.3546 55.7532 9.3546H65.4762C65.531 9.3546 65.5853 9.34391 65.6359 9.32312C65.6865 9.30234 65.7325 9.27188 65.7712 9.23348C65.81 9.19508 65.8407 9.14949 65.8617 9.09932C65.8826 9.04914 65.8934 8.99536 65.8934 8.94106V6.4628C65.8938 6.40824 65.8833 6.35414 65.8625 6.30361C65.8418 6.25309 65.8111 6.20714 65.7723 6.16842C65.7335 6.1297 65.6874 6.09897 65.6366 6.07799C65.5858 6.05702 65.5313 6.04623 65.4762 6.04623H55.7532C55.6425 6.04623 55.5364 6.00267 55.4582 5.92511C55.38 5.84756 55.336 5.74237 55.336 5.63269V4.08113C55.3347 3.93257 55.3659 3.78551 55.4274 3.65003C55.4889 3.51456 55.5793 3.39389 55.6923 3.2963Z" fill="#1F1F1E"/>
<path d="M107.569 3.2963C107.755 3.13546 107.994 3.04746 108.242 3.04878H120.34C120.451 3.04878 120.558 3.00488 120.637 2.92676C120.716 2.84864 120.76 2.74269 120.76 2.63221V0.519197C120.76 0.408717 120.716 0.302765 120.637 0.224644C120.558 0.146522 120.451 0.102631 120.34 0.102631H106.442C104.38 0.102631 104.094 1.75984 104.094 3.80342V11.685C104.094 13.7255 104.377 15.3797 106.436 15.3797H120.328C120.383 15.3801 120.437 15.3697 120.488 15.3491C120.539 15.3285 120.586 15.2981 120.625 15.2597C120.664 15.2212 120.695 15.1755 120.716 15.1251C120.737 15.0747 120.748 15.0207 120.748 14.9662V12.8532C120.748 12.7427 120.704 12.6367 120.625 12.5586C120.546 12.4805 120.439 12.4366 120.328 12.4366H108.242C107.969 12.435 107.708 12.3271 107.515 12.1362C107.321 11.9453 107.212 11.6867 107.209 11.4163V9.77117C107.209 9.66069 107.254 9.55474 107.332 9.47661C107.411 9.39849 107.518 9.3546 107.63 9.3546H117.35C117.405 9.355 117.459 9.3446 117.51 9.324C117.561 9.3034 117.608 9.27299 117.647 9.23455C117.686 9.19611 117.717 9.15039 117.738 9.10002C117.759 9.04965 117.77 8.99562 117.77 8.94106V6.4628C117.77 6.35232 117.726 6.24637 117.647 6.16824C117.568 6.09012 117.461 6.04623 117.35 6.04623H107.63C107.575 6.04663 107.52 6.03622 107.469 6.01562C107.418 5.99502 107.372 5.96462 107.333 5.92618C107.294 5.88774 107.263 5.84202 107.241 5.79165C107.22 5.74128 107.209 5.68725 107.209 5.63269V4.08113C107.208 3.93224 107.239 3.78484 107.301 3.64926C107.363 3.51368 107.455 3.39321 107.569 3.2963Z" fill="#1F1F1E"/>
<path d="M12.3024 53.0215C11.8923 52.7435 11.4006 52.6086 10.9046 52.6381H9.21766V50.9115H12.2628V50.2716H8.43506V55.7473H10.9046C11.4021 55.7747 11.8944 55.6354 12.3024 55.3519C12.4709 55.2079 12.6036 55.0273 12.6902 54.8241C12.7768 54.621 12.815 54.4008 12.8018 54.1807C12.8157 53.9622 12.7778 53.7435 12.691 53.5422C12.6043 53.3409 12.4712 53.1626 12.3024 53.0215ZM11.7207 54.884C11.4499 55.0575 11.1286 55.1371 10.8072 55.1104H9.20852V53.2721H10.8255C11.1469 53.2453 11.4681 53.3249 11.739 53.4984C11.8375 53.5832 11.9146 53.6895 11.9643 53.809C12.014 53.9285 12.0349 54.0578 12.0253 54.1867C12.0317 54.3183 12.0077 54.4496 11.9549 54.5705C11.9021 54.6914 11.822 54.7986 11.7207 54.884Z" fill="#1F1F1E"/>
<path d="M19.2818 53.0215C18.8708 52.743 18.3779 52.6082 17.881 52.6381H16.4711V50.2716H15.655V55.7473H17.881C18.3795 55.7752 18.8729 55.6359 19.2818 55.3519C19.4495 55.2076 19.5813 55.0268 19.6669 54.8236C19.7525 54.6204 19.7895 54.4004 19.7751 54.1807C19.79 53.9627 19.7531 53.7442 19.6674 53.5429C19.5818 53.3416 19.4497 53.163 19.2818 53.0215ZM18.6941 54.884C18.4237 55.0588 18.102 55.1385 17.7805 55.1104H16.4589V53.266H17.7805C18.102 53.2379 18.4237 53.3176 18.6941 53.4924C18.7963 53.5762 18.8772 53.6828 18.9301 53.8034C18.983 53.9241 19.0065 54.0554 18.9986 54.1867C19.0062 54.3184 18.9827 54.4501 18.9298 54.5712C18.8769 54.6923 18.7962 54.7994 18.6941 54.884ZM20.5485 50.2716V55.7473H21.3585V50.2716H20.5485Z" fill="#1F1F1E"/>
<path d="M27.8781 54.9655C27.6137 55.0648 27.3325 55.1129 27.0498 55.1074C26.7955 55.122 26.5411 55.0803 26.3052 54.9852C26.0692 54.8902 25.8575 54.7443 25.6856 54.558C25.3795 54.0985 25.2164 53.56 25.2164 53.0094C25.2164 52.4588 25.3795 51.9204 25.6856 51.4609C25.858 51.2755 26.0698 51.1306 26.3058 51.0366C26.5418 50.9426 26.796 50.902 27.0498 50.9176C27.3325 50.912 27.6137 50.9601 27.8781 51.0594C28.1461 51.1721 28.3939 51.327 28.6119 51.5183L28.8951 50.8723C28.6625 50.6536 28.3867 50.4851 28.0851 50.3772C27.7498 50.2553 27.3947 50.196 27.0376 50.2022C26.5343 50.189 26.0365 50.3077 25.5942 50.5463C25.198 50.7718 24.8797 51.1106 24.6807 51.5183C24.47 51.9876 24.3611 52.4957 24.3611 53.0094C24.3611 53.5232 24.47 54.0312 24.6807 54.5006C24.8795 54.91 25.1977 55.2507 25.5942 55.4786C26.037 55.7152 26.5349 55.8318 27.0376 55.8167C27.3947 55.8229 27.7498 55.7635 28.0851 55.6416C28.387 55.5316 28.6628 55.361 28.8951 55.1406L28.6119 54.5006C28.3939 54.6934 28.1461 54.8503 27.8781 54.9655Z" fill="#1F1F1E"/>
<path d="M31.1423 50.2716V50.9477H33.0273V55.7473H33.8434V50.9477H35.7283V50.2716H31.1423Z" fill="#1F1F1E"/>
<path d="M42.0684 50.6972C41.6859 50.3908 41.2009 50.2388 40.7102 50.2716H38.3716V55.7473H39.1846V53.4622H40.7072C41.1976 53.4974 41.6831 53.3463 42.0653 53.0396C42.2251 52.8899 42.3503 52.7078 42.4323 52.5056C42.5143 52.3034 42.5512 52.086 42.5404 51.8684C42.553 51.6508 42.5173 51.4332 42.4357 51.2308C42.3542 51.0284 42.2287 50.8462 42.0684 50.6972ZM41.4593 52.5717C41.2219 52.7544 40.9247 52.8437 40.625 52.8223H39.1816V50.9175H40.625C40.9249 50.8944 41.2227 50.9838 41.4593 51.1681C41.6412 51.3573 41.7427 51.6086 41.7427 51.8699C41.7427 52.1312 41.6412 52.3825 41.4593 52.5717Z" fill="#1F1F1E"/>
<path d="M49.0234 53.0215C48.6143 52.7413 48.1218 52.6063 47.6257 52.6381H46.2158V50.2716H45.4058V55.7473H47.6257C48.1234 55.7771 48.6165 55.6376 49.0234 55.3519C49.193 55.2088 49.3265 55.0283 49.4132 54.825C49.4999 54.6216 49.5374 54.401 49.5228 54.1807C49.5382 53.962 49.5009 53.7429 49.4141 53.5414C49.3272 53.3398 49.1933 53.1616 49.0234 53.0215ZM48.4417 54.884C48.1754 55.0549 47.8598 55.1344 47.5434 55.1104H46.2158V53.266H47.5434C47.8598 53.242 48.1754 53.3215 48.4417 53.4924C48.5446 53.5757 48.6259 53.6822 48.6788 53.803C48.7318 53.9237 48.7549 54.0553 48.7463 54.1867C48.7547 54.3185 48.7315 54.4504 48.6785 54.5716C48.6256 54.6928 48.5444 54.7998 48.4417 54.884ZM50.2993 50.2716V55.7473H51.1032V50.2716H50.2993Z" fill="#1F1F1E"/>
<path d="M58.2409 50.2716L55.0405 54.4584V50.2716H54.2883V55.7473H54.8974L58.1069 51.5605V55.7473H58.8621V50.2716H58.2409ZM57.7354 48.6536C57.6398 48.8789 57.484 49.0741 57.2847 49.2181C57.0708 49.3413 56.8253 49.4 56.5783 49.3871C56.3345 49.3976 56.093 49.3367 55.884 49.2121C55.6827 49.0739 55.5338 48.8731 55.4607 48.6415L55.0222 48.7985C55.0883 49.009 55.1982 49.2034 55.345 49.369C55.4926 49.5268 55.675 49.6487 55.8779 49.7252C56.1018 49.808 56.3393 49.849 56.5783 49.846C56.9165 49.8544 57.2501 49.7675 57.5405 49.5954C57.8321 49.4094 58.0479 49.1271 58.1495 48.7985L57.7354 48.6536Z" fill="#1F1F1E"/>
<path d="M69.9678 50.2716L66.7582 54.4584V50.2716H66.0061V55.7473H66.6151L69.8277 51.5605V55.7473H70.586V50.2716H69.9678Z" fill="#1F1F1E"/>
<path d="M81.6974 53.3113C81.5059 53.1179 81.2613 52.9846 80.994 52.9279C81.2216 52.8523 81.426 52.7204 81.5878 52.5446C81.812 52.267 81.919 51.914 81.886 51.5599C81.8531 51.2058 81.6828 50.8781 81.4112 50.6459C81.0065 50.3741 80.5227 50.2425 80.0348 50.2716H77.7327V55.7473H80.1414C80.6387 55.7777 81.1317 55.6393 81.5391 55.3549C81.7046 55.2194 81.8356 55.0471 81.9213 54.8519C82.007 54.6568 82.0451 54.4444 82.0324 54.2319C82.0409 54.0641 82.0156 53.8963 81.9581 53.7383C81.9006 53.5802 81.812 53.4351 81.6974 53.3113ZM78.5244 50.8964H79.913C80.2272 50.8748 80.5401 50.9542 80.8052 51.1228C80.9071 51.1988 80.9883 51.2987 81.0415 51.4136C81.0947 51.5285 81.1181 51.6547 81.1097 51.7809C81.1173 51.9069 81.0935 52.0328 81.0404 52.1476C80.9873 52.2623 80.9065 52.3624 80.8052 52.4389C80.5401 52.6075 80.2272 52.6869 79.913 52.6653H78.5244V50.8964ZM80.93 54.9081C80.6643 55.0603 80.3596 55.1327 80.053 55.1164H78.5305V53.3052H80.053C80.3596 53.2889 80.6643 53.3613 80.93 53.5135C81.0298 53.6024 81.1095 53.7111 81.1641 53.8325C81.2187 53.954 81.2469 54.0854 81.2469 54.2184C81.2469 54.3513 81.2187 54.4828 81.1641 54.6042C81.1095 54.7256 81.0298 54.8343 80.93 54.9232V54.9081Z" fill="#1F1F1E"/>
<path d="M88.6007 53.0215C88.1913 52.7422 87.6991 52.6072 87.203 52.6381H85.7931V50.2716H84.9771V55.7473H87.203C87.7007 55.7761 88.1934 55.6367 88.6007 55.3519C88.7692 55.2079 88.902 55.0273 88.9886 54.8241C89.0752 54.621 89.1134 54.4008 89.1001 54.1807C89.1141 53.9622 89.0761 53.7435 88.9894 53.5422C88.9027 53.3409 88.7696 53.1626 88.6007 53.0215ZM88.0191 54.884C87.7482 55.0575 87.427 55.1371 87.1056 55.1104H85.784V53.266H87.1056C87.427 53.2393 87.7482 53.3189 88.0191 53.4924C88.1192 53.5773 88.1976 53.6844 88.2479 53.8051C88.2981 53.9258 88.3189 54.0565 88.3084 54.1867C88.3186 54.3172 88.2978 54.4484 88.2476 54.5695C88.1973 54.6906 88.1191 54.7983 88.0191 54.884ZM89.8766 50.2716V55.7473H90.6805V50.2716H89.8766Z" fill="#1F1F1E"/>
<path d="M93.8596 50.2716V55.7473H94.6757V50.9417H97.5016V50.2716H93.8596Z" fill="#1F1F1E"/>
<path d="M104.746 51.5182C104.545 51.1117 104.227 50.7734 103.832 50.5462C103.407 50.3203 102.932 50.2021 102.45 50.2021C101.968 50.2021 101.493 50.3203 101.068 50.5462C100.678 50.7725 100.367 51.1117 100.178 51.5182C99.9773 51.9891 99.8738 52.4951 99.8738 53.0064C99.8738 53.5177 99.9773 54.0237 100.178 54.4946C100.373 54.9008 100.685 55.241 101.074 55.4726C101.495 55.6964 101.966 55.8135 102.444 55.8135C102.922 55.8135 103.393 55.6964 103.814 55.4726C104.209 55.2425 104.527 54.9024 104.728 54.4946C104.946 54.0216 105.05 53.505 105.032 52.9853C105.051 52.481 104.953 51.9791 104.746 51.5182ZM103.75 54.564C103.595 54.7494 103.397 54.896 103.174 54.992C102.951 55.0879 102.708 55.1305 102.465 55.1164C102.221 55.1328 101.977 55.0906 101.752 54.9934C101.528 54.8962 101.331 54.7468 101.177 54.558C100.89 54.0904 100.738 53.5537 100.738 53.0064C100.738 52.4591 100.89 51.9224 101.177 51.4548C101.332 51.2682 101.53 51.1209 101.754 51.0248C101.978 50.9288 102.222 50.8868 102.465 50.9024C102.709 50.8878 102.953 50.9302 103.177 51.0261C103.401 51.1221 103.6 51.2689 103.756 51.4548C104.051 51.9208 104.207 52.4596 104.207 53.0094C104.207 53.5593 104.051 54.098 103.756 54.564H103.75Z" fill="#1F1F1E"/>
<path d="M112.612 55.1074V50.2776H108.732V51.6994C108.744 52.3975 108.68 53.0948 108.54 53.7792C108.442 54.264 108.234 54.7203 107.931 55.1134H107.356V57.003H108.084V55.7533H112.697V57.003H113.406V55.1134L112.612 55.1074ZM111.805 55.1074H108.76C109.031 54.7011 109.218 54.2456 109.311 53.7671C109.441 53.105 109.5 52.4311 109.487 51.7567V50.9115H111.808L111.805 55.1074Z" fill="#1F1F1E"/>
<path d="M120.042 50.2716V52.6472H116.942V50.2806H116.129V55.7563H116.942V53.3113H120.042V55.7473H120.858V50.2716H120.042Z" fill="#1F1F1E"/>
<path d="M127.661 53.0215C127.251 52.7431 126.759 52.6081 126.263 52.6381H124.853V50.2716H124.037V55.7473H126.263C126.76 55.7752 127.253 55.6359 127.661 55.3519C127.828 55.2076 127.96 55.0268 128.046 54.8236C128.131 54.6204 128.168 54.4004 128.154 54.1807C128.169 53.9627 128.132 53.7442 128.046 53.5429C127.961 53.3416 127.828 53.163 127.661 53.0215ZM127.073 54.884C126.803 55.0594 126.481 55.1392 126.159 55.1104H124.838V53.266H126.159C126.481 53.2372 126.803 53.317 127.073 53.4924C127.175 53.5759 127.257 53.6824 127.31 53.8031C127.363 53.9238 127.386 54.0553 127.377 54.1867C127.386 54.3185 127.362 54.4503 127.309 54.5715C127.256 54.6926 127.175 54.7997 127.073 54.884ZM128.93 50.2716V55.7473H129.74V50.2716H128.93Z" fill="#1F1F1E"/>
<path d="M136.872 50.2716L133.671 54.4584V50.2716H132.935V55.7473H133.544L136.756 51.5545V55.7473H137.502V50.2716H136.872ZM136.372 48.6536C136.278 48.8812 136.119 49.0772 135.916 49.2181C135.7 49.331 135.46 49.39 135.217 49.39C134.973 49.39 134.733 49.331 134.518 49.2181C134.319 49.0772 134.171 48.8774 134.095 48.6476L133.653 48.8046C133.721 49.0154 133.833 49.2097 133.982 49.3751C134.127 49.5347 134.309 49.6569 134.512 49.7313C134.737 49.8149 134.975 49.8558 135.215 49.852C135.554 49.86 135.889 49.7732 136.181 49.6014C136.469 49.4121 136.684 49.1311 136.79 48.8046L136.372 48.6536Z" fill="#1F1F1E"/>
<path d="M149.314 51.5182C149.118 51.1152 148.808 50.7775 148.422 50.5463C147.995 50.3203 147.519 50.2021 147.035 50.2021C146.551 50.2021 146.075 50.3203 145.648 50.5463C145.261 50.7752 144.953 51.1137 144.762 51.5182C144.548 51.9861 144.444 52.4959 144.457 53.0094C144.443 53.5211 144.547 54.0292 144.762 54.4946C144.954 54.8996 145.262 55.2397 145.648 55.4726C146.073 55.6985 146.547 55.8167 147.029 55.8167C147.511 55.8167 147.985 55.6985 148.41 55.4726C148.798 55.2394 149.11 54.8997 149.308 54.4946C149.528 54.0221 149.632 53.5051 149.613 52.9853C149.63 52.4799 149.527 51.9777 149.314 51.5182ZM148.328 54.564C148.171 54.7485 147.974 54.8945 147.751 54.9903C147.528 55.0862 147.285 55.1293 147.043 55.1164C146.798 55.1323 146.552 55.0899 146.327 54.9927C146.102 54.8956 145.904 54.7465 145.749 54.558C145.462 54.0904 145.31 53.5537 145.31 53.0064C145.31 52.4591 145.462 51.9224 145.749 51.4549C145.914 51.2806 146.114 51.1418 146.336 51.0469C146.558 50.952 146.797 50.9031 147.038 50.9031C147.28 50.9031 147.519 50.952 147.74 51.0469C147.962 51.1418 148.162 51.2806 148.328 51.4549C148.624 51.9202 148.781 52.4592 148.781 53.0094C148.781 53.5597 148.624 54.0987 148.328 54.564Z" fill="#1F1F1E"/>
<path d="M156.489 53.0215C156.079 52.7418 155.587 52.6067 155.091 52.6381H153.41V50.9115H156.455V50.2716H152.621V55.7473H155.091C155.589 55.7766 156.082 55.6372 156.489 55.3519C156.658 55.2088 156.792 55.0283 156.878 54.825C156.965 54.6216 157.003 54.401 156.988 54.1807C157.003 53.962 156.966 53.7429 156.879 53.5414C156.793 53.3398 156.659 53.1617 156.489 53.0215ZM155.907 54.884C155.636 55.0581 155.315 55.1378 154.993 55.1104H153.395V53.2721H154.993C155.315 53.2446 155.636 53.3243 155.907 53.4984C156.007 53.5819 156.085 53.688 156.135 53.8078C156.185 53.9277 156.205 54.0576 156.193 54.1867C156.204 54.317 156.184 54.4481 156.134 54.5692C156.084 54.6904 156.007 54.7982 155.907 54.884Z" fill="#1F1F1E"/>
<path d="M164.604 50.2716L162.588 54.7753L160.575 50.2716H159.854V55.7473H160.6V51.962L162.323 55.7473H162.832L164.561 51.9378V55.7473H165.301V50.2716H164.604Z" fill="#1F1F1E"/>
<path d="M172.11 50.9176V50.2716H168.496V55.7473H172.11V55.0953H169.284V53.2841H171.934V52.6472H169.284V50.9236L172.11 50.9176Z" fill="#1F1F1E"/>
<path d="M178.916 50.2716V52.6472H175.816V50.2806H175V55.7563H175.816V53.3113H178.916V55.7473H179.732V50.2716H178.916Z" fill="#1F1F1E"/>
<path d="M14.379 13.6199H20.3749C20.4037 13.6202 20.4319 13.6284 20.4563 13.6437C20.4807 13.6589 20.5003 13.6806 20.5129 13.7063C20.5256 13.732 20.5308 13.7607 20.5279 13.7892C20.525 13.8176 20.5142 13.8447 20.4967 13.8674L12.1043 24.5925L6.95199 31.17L0.277088 39.8061C0.254451 39.8362 0.221513 39.8571 0.184465 39.8648C0.147416 39.8724 0.108807 39.8665 0.0758953 39.8479C0.0429837 39.8294 0.0180351 39.7996 0.00573803 39.7641C-0.00655907 39.7286 -0.00535798 39.6899 0.00911602 39.6552L6.86672 22.7632C6.87625 22.7397 6.87978 22.7142 6.87698 22.689C6.87418 22.6638 6.86515 22.6397 6.85069 22.6188C6.83623 22.5979 6.81679 22.5808 6.79409 22.5691C6.77138 22.5575 6.74613 22.5516 6.72056 22.5519H1.90623C1.87923 22.5516 1.85276 22.5444 1.82944 22.531C1.80611 22.5175 1.78673 22.4982 1.7732 22.4751C1.75967 22.4519 1.75247 22.4257 1.7523 22.3989C1.75213 22.3721 1.75901 22.3458 1.77224 22.3225L14.5069 0.0634041C14.5207 0.0396903 14.5408 0.0201447 14.5649 0.00685167C14.589 -0.0064414 14.6164 -0.0129816 14.644 -0.0120606H22.9115C22.9393 -0.0117228 22.9666 -0.00396135 22.9904 0.0104075C23.0141 0.0247764 23.0336 0.0452281 23.0467 0.069613C23.0598 0.093998 23.066 0.121424 23.0647 0.149011C23.0634 0.176599 23.0546 0.203329 23.0393 0.22641L14.2481 13.3693C14.2291 13.3926 14.2173 13.4209 14.2142 13.4507C14.2112 13.4805 14.2169 13.5105 14.2308 13.5371C14.2447 13.5637 14.2662 13.5857 14.2925 13.6004C14.3188 13.6151 14.3489 13.6219 14.379 13.6199Z" fill="#1F1F1E"/>
</g>
<defs>
<clipPath id="clip0_2501_4985">
<rect width="180" height="57" fill="white"/>
</clipPath>
</defs>
</svg>
