<svg width="40" height="40" viewBox="0 0 40 40" fill="none" xmlns="http://www.w3.org/2000/svg">
<path fill-rule="evenodd" clip-rule="evenodd" d="M19.1439 7.94661C12.87 8.38582 7.91675 13.6145 7.91675 20.0001C7.91675 26.6735 13.3266 32.0834 20.0001 32.0834C25.3465 32.0834 29.8829 28.6104 31.4748 23.7979C30.2496 24.304 28.9069 24.5834 27.5001 24.5834C21.7471 24.5834 17.0834 19.9197 17.0834 14.1667C17.0834 11.8348 17.8503 9.6819 19.1439 7.94661ZM5.41675 20.0001C5.41675 11.9459 11.9459 5.41675 20.0001 5.41675C20.7494 5.41675 21.4864 5.47337 22.2067 5.58278C22.7049 5.65846 23.109 6.02597 23.2315 6.51485C23.354 7.00373 23.1709 7.51834 22.7671 7.81998C20.8321 9.26566 19.5834 11.5702 19.5834 14.1667C19.5834 18.539 23.1278 22.0834 27.5001 22.0834C29.3905 22.0834 31.1231 21.4224 32.4843 20.3178C32.8755 20.0004 33.4189 19.9488 33.8628 20.1869C34.3067 20.425 34.5643 20.9063 34.5163 21.4078C33.8073 28.8021 27.5796 34.5834 20.0001 34.5834C11.9459 34.5834 5.41675 28.0542 5.41675 20.0001Z" fill="#5E5E5D"/>
</svg>
