<svg width="24" height="25" viewBox="0 0 24 25" fill="none" xmlns="http://www.w3.org/2000/svg">
<path fill-rule="evenodd" clip-rule="evenodd" d="M11.4863 5.26792C7.72194 5.53144 4.75 8.66865 4.75 12.5C4.75 16.5041 7.99594 19.75 12 19.75C15.2079 19.75 17.9297 17.6662 18.8848 14.7787C18.1497 15.0824 17.3441 15.25 16.5 15.25C13.0482 15.25 10.25 12.4518 10.25 9C10.25 7.60086 10.7101 6.30909 11.4863 5.26792ZM3.25 12.5C3.25 7.66751 7.16751 3.75 12 3.75C12.4496 3.75 12.8918 3.78398 13.3239 3.84962C13.6229 3.89503 13.8654 4.11553 13.9388 4.40886C14.0123 4.70219 13.9025 5.01095 13.6602 5.19194C12.4992 6.05935 11.75 7.44208 11.75 9C11.75 11.6234 13.8766 13.75 16.5 13.75C17.6342 13.75 18.6738 13.3534 19.4905 12.6906C19.7252 12.5002 20.0513 12.4692 20.3176 12.6121C20.584 12.755 20.7386 13.0437 20.7097 13.3446C20.2843 17.7812 16.5477 21.25 12 21.25C7.16751 21.25 3.25 17.3325 3.25 12.5Z" fill="#1F1F1E"/>
</svg>
